<svg xmlns="http://www.w3.org/2000/svg" xmlns:xlink="http://www.w3.org/1999/xlink" width="500" zoomAndPan="magnify" viewBox="0 0 375 374.999991" height="500" preserveAspectRatio="xMidYMid meet" version="1.0"><defs><g/></defs><g fill="#f4aaee" fill-opacity="0.302"><g transform="translate(4.403491, 240.850801)"><g><path d="M 79.046875 -129.03125 C 73.398438 -119.566406 68.417969 -108.769531 61.609375 -100.300781 C 59.449219 -97.644531 55.300781 -98.308594 52.640625 -94.15625 C 50.648438 -91.167969 51.8125 -85.523438 50.648438 -83.199219 C 46.664062 -75.394531 41.015625 -68.085938 36.203125 -60.777344 C 37.03125 -55.632812 38.359375 -49.984375 38.359375 -44.835938 C 38.359375 -41.847656 36.203125 -38.859375 36.203125 -35.871094 C 36.203125 -33.378906 38.359375 -33.542969 40.351562 -33.378906 C 42.84375 -23.082031 44.671875 -12.453125 46.332031 -1.992188 C 44.503906 -0.167969 40.519531 3.820312 37.695312 3.820312 C 36.367188 3.820312 35.371094 3.320312 34.042969 3.320312 C 29.890625 3.320312 26.070312 6.308594 22.417969 7.804688 C 20.925781 4.980469 18.929688 -2.824219 18.929688 -5.976562 C 18.929688 -8.636719 20.757812 -11.292969 20.757812 -13.949219 C 20.757812 -17.601562 16.773438 -17.269531 15.777344 -19.761719 C 12.453125 -28.5625 11.125 -42.179688 9.132812 -51.8125 C 17.105469 -63.269531 26.570312 -74.5625 33.210938 -86.851562 C 34.707031 -89.507812 33.875 -92.496094 35.039062 -94.988281 C 39.023438 -103.789062 46.496094 -114.417969 51.976562 -122.386719 C 55.796875 -123.386719 59.449219 -123.21875 63.269531 -123.882812 C 67.253906 -124.546875 68.917969 -129.859375 72.402344 -129.859375 C 74.5625 -129.859375 76.886719 -129.527344 79.046875 -129.03125 Z M 88.675781 -122.054688 C 86.351562 -123.21875 83.03125 -123.21875 80.375 -123.21875 L 85.855469 -132.351562 C 82.535156 -134.011719 78.878906 -134.84375 75.226562 -134.84375 C 70.578125 -134.84375 67.753906 -131.6875 64.265625 -128.863281 C 60.113281 -128.53125 53.96875 -127.867188 50.152344 -126.207031 C 46.164062 -121.890625 33.710938 -101.628906 30.886719 -95.816406 C 29.394531 -92.996094 30.058594 -89.839844 29.0625 -87.679688 C 22.585938 -74.230469 11.457031 -63.269531 3.652344 -50.648438 C 5.976562 -39.6875 7.140625 -27.566406 10.628906 -16.9375 C 11.625 -13.617188 15.609375 -12.953125 15.609375 -10.960938 C 15.609375 -8.96875 13.949219 -6.808594 13.949219 -4.316406 C 13.949219 -0.664062 16.273438 10.628906 19.097656 12.953125 C 21.589844 12.621094 23.914062 11.457031 26.238281 10.460938 C 26.570312 12.121094 27.398438 16.605469 28.5625 17.769531 C 32.878906 17.269531 36.367188 13.117188 40.683594 13.117188 C 41.847656 13.117188 42.679688 13.785156 43.839844 13.785156 C 47.160156 13.785156 53.140625 8.46875 55.464844 6.144531 C 54.632812 0.664062 51.644531 -22.75 49.488281 -26.238281 C 49.15625 -26.902344 48.324219 -26.902344 47.660156 -26.902344 L 46.332031 -33.046875 C 46.828125 -35.039062 47.160156 -37.03125 47.160156 -39.191406 C 47.160156 -43.839844 46.164062 -48.492188 45.335938 -52.972656 C 49.984375 -60.113281 55.300781 -67.089844 59.285156 -74.5625 C 60.945312 -77.882812 59.617188 -82.867188 61.277344 -85.523438 C 63.4375 -88.84375 67.585938 -88.34375 70.246094 -91.832031 C 77.21875 -101.296875 82.699219 -111.925781 88.675781 -122.054688 Z M 88.675781 -122.054688 "/></g></g></g><g fill="#f4aaee" fill-opacity="0.302"><g transform="translate(66.839545, 240.850801)"><g><path d="M 50.316406 -63.105469 C 49.984375 -58.289062 49.15625 -53.636719 47.992188 -48.988281 C 46.332031 -48.824219 44.671875 -48.324219 43.175781 -47.824219 C 43.839844 -49.15625 44.671875 -50.648438 44.671875 -52.144531 C 44.671875 -52.972656 44.339844 -53.636719 44.339844 -54.46875 C 44.339844 -57.125 47.660156 -58.121094 48.824219 -60.28125 Z M 56.460938 -86.019531 C 56.460938 -87.347656 56.960938 -92.332031 54.632812 -92.332031 C 50.316406 -92.332031 42.679688 -72.570312 40.019531 -68.585938 C 38.527344 -66.257812 35.371094 -65.761719 35.371094 -62.273438 C 35.371094 -61.609375 35.371094 -61.109375 35.539062 -60.445312 C 36.203125 -56.460938 28.5625 -47.824219 28.5625 -41.351562 C 28.5625 -40.519531 28.894531 -39.523438 29.890625 -39.523438 C 36.367188 -39.523438 42.347656 -44.171875 49.15625 -44.171875 C 51.148438 -45.667969 52.308594 -47.824219 52.972656 -50.152344 C 55.464844 -59.617188 56.460938 -76.222656 56.460938 -86.019531 Z M 84.195312 -128.035156 C 84.195312 -123.21875 83.695312 -118.402344 83.199219 -113.585938 C 82.035156 -112.257812 80.871094 -110.597656 80.871094 -108.769531 C 80.871094 -107.941406 81.039062 -107.277344 81.703125 -106.777344 C 80.375 -91.667969 78.546875 -76.554688 75.890625 -61.609375 C 74.0625 -60.113281 72.734375 -58.621094 72.402344 -56.128906 L 75.058594 -53.140625 C 74.394531 -43.675781 71.574219 -34.042969 68.585938 -25.074219 L 71.90625 -24.910156 C 71.074219 -18.597656 69.914062 -12.289062 68.585938 -6.144531 C 61.277344 -3.320312 53.636719 -0.5 45.832031 0.5 C 45.667969 -0.5 45.667969 -1.496094 45.667969 -2.492188 C 45.667969 -10.460938 48.65625 -18.101562 48.492188 -26.070312 C 42.84375 -22.75 26.570312 -19.429688 19.761719 -18.597656 C 13.617188 -11.457031 11.292969 -0.5 6.476562 4.980469 C 6.144531 5.3125 3.820312 7.140625 3.488281 7.140625 C 1.992188 7.140625 3.652344 1.828125 0 1.828125 C -2.492188 1.828125 -5.3125 4.980469 -6.640625 6.808594 C -8.800781 6.976562 -10.960938 7.308594 -13.117188 7.308594 C -9.964844 1.496094 5.644531 -25.738281 5.644531 -30.390625 C 5.644531 -31.21875 4.980469 -31.882812 4.484375 -32.382812 C 9.964844 -41.515625 14.28125 -51.3125 18.929688 -60.945312 C 22.75 -68.917969 26.570312 -77.054688 30.222656 -85.023438 C 31.882812 -88.675781 33.210938 -92.828125 35.207031 -96.316406 C 37.03125 -99.472656 43.011719 -101.960938 43.011719 -106.28125 C 43.011719 -108.4375 41.183594 -108.769531 41.015625 -110.101562 C 43.675781 -113.917969 45.335938 -118.238281 47.824219 -122.054688 C 59.617188 -126.707031 71.90625 -128.53125 84.195312 -130.691406 Z M 93.328125 -121.390625 C 93.328125 -122.386719 93.328125 -123.21875 93.160156 -124.214844 L 89.007812 -123.550781 C 89.34375 -127.703125 89.675781 -132.019531 88.84375 -136.171875 C 74.230469 -133.515625 59.449219 -131.523438 45.5 -125.875 C 41.847656 -120.894531 39.6875 -114.914062 36.035156 -109.933594 C 36.035156 -109.269531 35.871094 -108.769531 35.871094 -108.105469 C 35.871094 -106.613281 36.535156 -105.617188 37.695312 -104.621094 L 36.867188 -102.960938 C 35.039062 -101.628906 32.050781 -99.140625 30.886719 -97.148438 C 28.894531 -93.492188 27.398438 -89.175781 25.738281 -85.355469 C 20.425781 -73.730469 15.113281 -62.441406 9.464844 -50.980469 C 6.308594 -44.503906 2.988281 -37.199219 -1.164062 -31.21875 L 0 -28.398438 C -4.980469 -14.28125 -13.117188 -1.328125 -20.257812 11.789062 C -18.265625 12.121094 -16.441406 12.121094 -14.449219 12.121094 C -11.292969 12.121094 -8.304688 11.957031 -5.3125 11.625 L -8.304688 17.105469 C -7.472656 17.269531 -6.640625 17.269531 -5.8125 17.269531 C -3.488281 17.269531 -0.996094 16.9375 1.328125 16.605469 C 2.160156 15.277344 4.484375 11.625 6.308594 11.625 C 8.800781 11.625 7.472656 16.273438 9.300781 16.273438 C 10.792969 16.273438 13.285156 14.945312 14.613281 14.117188 C 20.09375 7.308594 21.589844 -1.992188 27.398438 -8.800781 C 32.214844 -9.464844 37.199219 -10.460938 42.015625 -11.625 C 41.351562 -7.804688 40.683594 -4.152344 40.683594 -0.332031 C 40.683594 1.660156 40.851562 3.652344 41.351562 5.644531 C 44.671875 5.3125 48.160156 4.816406 51.480469 3.984375 C 51.3125 6.144531 51.148438 8.46875 51.644531 10.460938 C 60.445312 9.632812 69.25 6.144531 77.386719 2.988281 C 78.878906 -3.984375 80.207031 -11.125 81.203125 -18.265625 L 77.882812 -18.433594 C 80.707031 -27.234375 83.695312 -36.699219 84.027344 -46 L 81.535156 -48.988281 C 82.035156 -51.644531 84.027344 -51.644531 84.859375 -53.472656 C 87.183594 -58.453125 90.171875 -92 90.835938 -99.804688 C 90.339844 -100.136719 89.839844 -100.632812 89.839844 -101.296875 C 89.839844 -102.792969 91.003906 -104.121094 92 -105.117188 C 92.828125 -110.433594 93.328125 -116.078125 93.328125 -121.390625 Z M 93.328125 -121.390625 "/></g></g></g><g fill="#f4aaee" fill-opacity="0.302"><g transform="translate(152.855174, 240.850801)"><g><path d="M 61.609375 -91.667969 C 60.777344 -84.527344 57.125 -74.726562 52.640625 -69.25 C 53.96875 -74.5625 56.792969 -89.175781 61.609375 -91.667969 Z M 66.921875 -96.484375 C 66.921875 -100.300781 65.761719 -103.125 61.609375 -103.125 C 58.121094 -103.125 53.636719 -101.628906 51.3125 -98.972656 C 48.65625 -95.816406 40.1875 -67.917969 40.1875 -63.269531 C 40.1875 -61.277344 41.183594 -60.113281 43.34375 -60.113281 C 56.628906 -60.113281 66.921875 -85.191406 66.921875 -96.484375 Z M 98.308594 -110.101562 C 98.308594 -100.964844 95.152344 -89.175781 91.003906 -81.039062 C 87.347656 -79.710938 84.527344 -77.882812 84.527344 -73.730469 C 84.527344 -72.570312 84.691406 -71.242188 84.195312 -70.078125 C 81.203125 -62.441406 66.257812 -54.46875 66.257812 -46.828125 C 66.257812 -39.855469 71.90625 -24.078125 74.230469 -16.9375 C 74.726562 -15.445312 76.722656 -8.96875 76.722656 -7.640625 C 76.722656 -5.8125 67.089844 -2.824219 65.261719 -2.824219 C 63.933594 -3.652344 62.441406 -4.316406 60.945312 -4.316406 C 57.457031 -4.316406 51.8125 -0.5 48.988281 -0.5 C 48.160156 -0.5 46.496094 -8.636719 46.496094 -9.964844 C 46.496094 -11.957031 50.152344 -14.613281 50.152344 -16.9375 C 50.152344 -19.097656 46.164062 -19.59375 44.503906 -19.761719 C 41.847656 -23.582031 43.675781 -37.199219 38.527344 -37.199219 C 29.226562 -37.199219 28.066406 -1.496094 22.585938 4.816406 C 20.757812 6.976562 16.273438 6.144531 13.785156 6.640625 C 13.949219 5.480469 14.117188 2.988281 12.453125 2.988281 C 8.304688 2.988281 3.820312 6.144531 -0.5 6.144531 C -1.828125 6.144531 -1.992188 5.976562 -1.992188 4.816406 C -1.992188 4.484375 -0.5 1.164062 -0.332031 0.5 C 0.664062 -2.492188 1.496094 -10.792969 3.15625 -12.785156 C 6.976562 -17.4375 14.449219 -44.171875 14.449219 -50.316406 C 14.449219 -51.8125 13.285156 -52.308594 12.289062 -52.972656 C 14.449219 -63.105469 17.769531 -72.902344 20.425781 -83.03125 C 22.917969 -84.691406 25.738281 -87.015625 25.738281 -90.171875 C 25.738281 -92 24.742188 -93.660156 23.914062 -95.320312 C 25.574219 -100.46875 27.398438 -105.949219 28.5625 -111.261719 C 28.730469 -112.257812 29.226562 -115.746094 29.890625 -116.242188 C 31.71875 -117.738281 67.089844 -126.042969 71.242188 -126.207031 C 71.40625 -124.546875 71.738281 -123.71875 73.566406 -123.71875 C 78.050781 -123.71875 82.699219 -126.042969 87.347656 -126.042969 C 96.316406 -126.042969 98.308594 -117.40625 98.308594 -110.101562 Z M 107.277344 -104.785156 C 107.277344 -108.273438 105.78125 -113.917969 103.125 -116.410156 C 102.960938 -124.546875 97.3125 -131.023438 89.007812 -131.023438 C 84.859375 -131.023438 80.539062 -129.695312 76.390625 -128.863281 C 76.058594 -130.195312 74.894531 -131.355469 73.398438 -131.355469 C 67.421875 -131.355469 36.367188 -123.550781 30.222656 -121.058594 C 25.074219 -119.066406 24.578125 -114.75 23.582031 -110.101562 C 22.253906 -104.289062 20.257812 -98.640625 18.433594 -92.996094 C 18.929688 -92.164062 20.59375 -89.839844 20.59375 -89.007812 C 20.59375 -87.515625 17.269531 -85.855469 16.273438 -85.191406 C 14.449219 -77.71875 7.140625 -56.628906 7.140625 -50.648438 C 7.140625 -49.320312 7.972656 -48.492188 9.132812 -47.992188 C 8.136719 -43.175781 2.492188 -17.933594 0.664062 -15.777344 C -4.152344 -9.964844 -3.15625 -5.3125 -5.3125 1.164062 C -5.976562 3.320312 -7.308594 5.480469 -7.308594 7.804688 C -7.308594 10.296875 -5.480469 11.292969 -3.15625 11.292969 C -0.332031 11.292969 2.324219 10.460938 4.980469 9.632812 C 4.316406 11.125 3.488281 12.953125 3.488281 14.613281 C 3.488281 15.941406 4.484375 16.109375 5.644531 16.109375 C 10.128906 16.109375 14.449219 12.953125 18.765625 12.953125 L 19.097656 12.953125 C 19.429688 13.117188 19.59375 13.617188 19.59375 13.949219 C 19.59375 14.449219 18.929688 16.773438 19.925781 16.773438 C 23.082031 16.773438 28.894531 16.109375 31.054688 13.449219 C 35.039062 8.46875 37.53125 -9.464844 39.355469 -16.441406 C 40.019531 -15.277344 42.347656 -14.28125 43.675781 -14.28125 C 43.839844 -14.28125 44.007812 -14.28125 44.171875 -14.28125 C 42.84375 -12.121094 41.515625 -9.796875 41.515625 -7.308594 C 41.515625 -4.152344 42.511719 4.152344 46.496094 4.152344 C 48.65625 4.152344 50.816406 3.320312 52.808594 2.65625 C 53.140625 4.152344 53.636719 9.300781 55.796875 9.300781 C 58.121094 9.300781 64.265625 5.480469 68.25 5.480469 C 70.410156 5.480469 70.410156 7.140625 72.070312 7.140625 C 74.726562 7.140625 85.6875 2.492188 85.6875 -0.332031 C 85.6875 -4.484375 82.035156 -12.621094 80.539062 -16.773438 C 78.714844 -22.253906 78.050781 -28.066406 76.390625 -33.542969 C 75.890625 -35.207031 74.894531 -36.699219 74.894531 -38.527344 C 74.894531 -45.832031 93.492188 -56.792969 93.492188 -63.601562 C 93.492188 -64.433594 93.160156 -65.429688 93.160156 -66.257812 C 93.160156 -70.246094 98.808594 -71.074219 99.472656 -71.90625 C 104.121094 -78.214844 107.277344 -96.816406 107.277344 -104.785156 Z M 107.277344 -104.785156 "/></g></g></g><g fill="#f4aaee" fill-opacity="0.302"><g transform="translate(244.350551, 240.850801)"><g><path d="M 74.894531 -129.859375 C 68.417969 -114.582031 61.609375 -99.636719 54.632812 -84.691406 C 51.976562 -78.878906 49.488281 -72.070312 46.164062 -66.589844 C 44.339844 -63.769531 40.519531 -62.441406 38.691406 -59.285156 C 28.398438 -41.183594 22.085938 -18.433594 13.117188 0.832031 C 10.628906 1.496094 7.972656 1.992188 5.480469 2.65625 C 0.332031 3.820312 0.332031 9.796875 -4.484375 9.796875 C -5.976562 9.796875 -7.804688 9.300781 -9.132812 8.636719 C 0.167969 -9.796875 8.636719 -28.5625 17.4375 -47.160156 C 20.925781 -54.46875 23.746094 -62.273438 27.734375 -69.25 C 29.726562 -72.902344 36.035156 -75.394531 36.035156 -79.710938 C 36.035156 -81.371094 35.039062 -82.699219 35.039062 -84.195312 C 35.039062 -85.355469 49.15625 -116.410156 50.484375 -119.566406 C 57.625 -122.222656 62.273438 -120.394531 66.257812 -128.699219 C 69.082031 -129.195312 71.90625 -129.695312 74.894531 -129.859375 Z M 83.695312 -123.386719 C 81.203125 -123.386719 78.714844 -122.886719 76.390625 -122.554688 L 81.703125 -134.84375 C 80.707031 -134.84375 79.542969 -134.84375 78.546875 -134.84375 C 68.917969 -134.84375 66.257812 -134.511719 60.28125 -126.871094 C 56.460938 -126.042969 51.148438 -124.714844 47.824219 -122.71875 C 45.5 -119.566406 30.058594 -84.859375 30.058594 -82.199219 C 30.058594 -80.539062 31.054688 -79.710938 30.886719 -77.882812 C 28.066406 -75.226562 25.074219 -72.902344 23.25 -69.414062 C 19.761719 -62.9375 16.9375 -56.128906 13.785156 -49.488281 C 4.152344 -29.0625 -5.148438 -8.304688 -15.445312 11.789062 C -12.785156 13.449219 -9.132812 14.78125 -5.976562 14.78125 C -4.484375 14.78125 -2.988281 14.449219 -1.828125 13.617188 L -3.984375 17.933594 C -1.992188 19.097656 0.664062 19.59375 2.824219 19.59375 C 7.308594 19.59375 8.96875 13.449219 12.289062 12.453125 C 15.277344 11.625 18.433594 11.125 21.421875 10.296875 C 28.066406 -3.820312 33.378906 -18.433594 39.355469 -32.878906 C 41.847656 -38.859375 44.171875 -45.5 47.492188 -50.980469 C 49.320312 -53.96875 53.140625 -55.300781 54.96875 -58.289062 C 58.785156 -64.597656 61.441406 -72.070312 64.597656 -78.878906 C 71.40625 -93.660156 78.050781 -108.4375 84.527344 -123.386719 Z M 83.695312 -123.386719 "/></g></g></g><g fill="#f4aaee" fill-opacity="0.302"><g transform="translate(300.642627, 240.850801)"><g><path d="M 62.773438 -64.765625 C 58.785156 -58.953125 39.855469 -35.371094 39.855469 -30.554688 C 39.855469 -28.5625 40.519531 -30.554688 40.519531 -28.5625 C 40.519531 -25.738281 21.589844 -1.660156 18.597656 2.988281 C 14.613281 4.648438 10.792969 5.644531 6.640625 6.640625 C 3.652344 7.472656 0.332031 11.292969 -0.832031 11.625 C -1.164062 11.625 -1.496094 11.789062 -1.828125 11.789062 C -3.652344 11.789062 -5.976562 11.292969 -7.472656 10.296875 C -0.167969 0.167969 8.800781 -9.632812 14.945312 -20.425781 C 16.273438 -22.917969 15.941406 -25.40625 17.105469 -27.734375 C 22.085938 -37.863281 29.890625 -47.328125 36.035156 -56.960938 C 34.875 -63.601562 32.214844 -70.910156 32.214844 -77.71875 C 32.214844 -79.875 35.871094 -82.367188 35.871094 -86.1875 C 35.871094 -88.34375 30.722656 -88.84375 30.222656 -89.839844 C 29.394531 -91.5 26.402344 -112.425781 25.90625 -115.910156 C 28.894531 -118.570312 32.382812 -120.894531 36.035156 -122.886719 C 37.03125 -121.890625 38.359375 -120.0625 40.019531 -120.0625 C 41.183594 -120.0625 50.980469 -123.882812 53.804688 -124.546875 C 55.300781 -116.742188 59.617188 -109.269531 59.617188 -101.296875 C 59.617188 -99.140625 54.96875 -94.65625 54.96875 -90.671875 C 54.96875 -83.199219 61.109375 -72.570312 62.773438 -64.765625 Z M 71.738281 -56.792969 C 70.246094 -65.429688 63.933594 -75.226562 63.933594 -83.363281 C 63.933594 -86.851562 68.585938 -90.503906 68.585938 -93.992188 C 68.585938 -101.960938 63.769531 -110.101562 62.773438 -118.238281 L 61.609375 -118.070312 C 60.445312 -122.054688 59.117188 -126.042969 58.621094 -130.195312 C 52.808594 -129.03125 47.328125 -127.535156 42.015625 -125.046875 C 40.019531 -125.210938 41.515625 -127.703125 38.195312 -127.703125 C 33.046875 -127.703125 24.078125 -119.730469 20.425781 -116.078125 C 21.589844 -107.941406 22.417969 -94.324219 25.074219 -87.015625 C 26.402344 -83.199219 28.5625 -85.023438 30.722656 -83.695312 C 29.558594 -81.535156 27.066406 -78.214844 27.066406 -75.890625 C 27.066406 -69.414062 29.394531 -62.273438 30.554688 -55.964844 C 24.742188 -46.996094 18.433594 -38.027344 13.117188 -28.730469 C 11.457031 -25.738281 11.789062 -24.910156 11.125 -21.921875 C 10.460938 -18.929688 -10.296875 7.140625 -13.949219 12.453125 C -11.625 14.945312 -7.972656 16.773438 -4.484375 16.773438 C -2.824219 16.773438 -1.164062 16.273438 0.332031 15.445312 L -2.324219 19.261719 C -0.664062 20.925781 2.160156 21.589844 4.484375 21.589844 C 8.46875 21.589844 10.296875 17.269531 13.617188 16.441406 C 18.265625 15.277344 22.417969 14.28125 26.734375 12.289062 C 29.890625 7.308594 49.488281 -17.4375 49.488281 -20.757812 C 49.488281 -21.753906 48.824219 -22.585938 48.824219 -23.582031 C 48.824219 -26.734375 68.585938 -51.8125 71.738281 -56.792969 Z M 71.738281 -56.792969 "/></g></g></g><g fill="#f4aaee" fill-opacity="0.502"><g transform="translate(2.201748, 238.649053)"><g><path d="M 79.046875 -129.03125 C 73.398438 -119.566406 68.417969 -108.769531 61.609375 -100.300781 C 59.449219 -97.644531 55.300781 -98.308594 52.640625 -94.15625 C 50.648438 -91.167969 51.8125 -85.523438 50.648438 -83.199219 C 46.664062 -75.394531 41.015625 -68.085938 36.203125 -60.777344 C 37.03125 -55.632812 38.359375 -49.984375 38.359375 -44.835938 C 38.359375 -41.847656 36.203125 -38.859375 36.203125 -35.871094 C 36.203125 -33.378906 38.359375 -33.542969 40.351562 -33.378906 C 42.84375 -23.082031 44.671875 -12.453125 46.332031 -1.992188 C 44.503906 -0.167969 40.519531 3.820312 37.695312 3.820312 C 36.367188 3.820312 35.371094 3.320312 34.042969 3.320312 C 29.890625 3.320312 26.070312 6.308594 22.417969 7.804688 C 20.925781 4.980469 18.929688 -2.824219 18.929688 -5.976562 C 18.929688 -8.636719 20.757812 -11.292969 20.757812 -13.949219 C 20.757812 -17.601562 16.773438 -17.269531 15.777344 -19.761719 C 12.453125 -28.5625 11.125 -42.179688 9.132812 -51.8125 C 17.105469 -63.269531 26.570312 -74.5625 33.210938 -86.851562 C 34.707031 -89.507812 33.875 -92.496094 35.039062 -94.988281 C 39.023438 -103.789062 46.496094 -114.417969 51.976562 -122.386719 C 55.796875 -123.386719 59.449219 -123.21875 63.269531 -123.882812 C 67.253906 -124.546875 68.917969 -129.859375 72.402344 -129.859375 C 74.5625 -129.859375 76.886719 -129.527344 79.046875 -129.03125 Z M 88.675781 -122.054688 C 86.351562 -123.21875 83.03125 -123.21875 80.375 -123.21875 L 85.855469 -132.351562 C 82.535156 -134.011719 78.878906 -134.84375 75.226562 -134.84375 C 70.578125 -134.84375 67.753906 -131.6875 64.265625 -128.863281 C 60.113281 -128.53125 53.96875 -127.867188 50.152344 -126.207031 C 46.164062 -121.890625 33.710938 -101.628906 30.886719 -95.816406 C 29.394531 -92.996094 30.058594 -89.839844 29.0625 -87.679688 C 22.585938 -74.230469 11.457031 -63.269531 3.652344 -50.648438 C 5.976562 -39.6875 7.140625 -27.566406 10.628906 -16.9375 C 11.625 -13.617188 15.609375 -12.953125 15.609375 -10.960938 C 15.609375 -8.96875 13.949219 -6.808594 13.949219 -4.316406 C 13.949219 -0.664062 16.273438 10.628906 19.097656 12.953125 C 21.589844 12.621094 23.914062 11.457031 26.238281 10.460938 C 26.570312 12.121094 27.398438 16.605469 28.5625 17.769531 C 32.878906 17.269531 36.367188 13.117188 40.683594 13.117188 C 41.847656 13.117188 42.679688 13.785156 43.839844 13.785156 C 47.160156 13.785156 53.140625 8.46875 55.464844 6.144531 C 54.632812 0.664062 51.644531 -22.75 49.488281 -26.238281 C 49.15625 -26.902344 48.324219 -26.902344 47.660156 -26.902344 L 46.332031 -33.046875 C 46.828125 -35.039062 47.160156 -37.03125 47.160156 -39.191406 C 47.160156 -43.839844 46.164062 -48.492188 45.335938 -52.972656 C 49.984375 -60.113281 55.300781 -67.089844 59.285156 -74.5625 C 60.945312 -77.882812 59.617188 -82.867188 61.277344 -85.523438 C 63.4375 -88.84375 67.585938 -88.34375 70.246094 -91.832031 C 77.21875 -101.296875 82.699219 -111.925781 88.675781 -122.054688 Z M 88.675781 -122.054688 "/></g></g></g><g fill="#f4aaee" fill-opacity="0.502"><g transform="translate(64.637801, 238.649053)"><g><path d="M 50.316406 -63.105469 C 49.984375 -58.289062 49.15625 -53.636719 47.992188 -48.988281 C 46.332031 -48.824219 44.671875 -48.324219 43.175781 -47.824219 C 43.839844 -49.15625 44.671875 -50.648438 44.671875 -52.144531 C 44.671875 -52.972656 44.339844 -53.636719 44.339844 -54.46875 C 44.339844 -57.125 47.660156 -58.121094 48.824219 -60.28125 Z M 56.460938 -86.019531 C 56.460938 -87.347656 56.960938 -92.332031 54.632812 -92.332031 C 50.316406 -92.332031 42.679688 -72.570312 40.019531 -68.585938 C 38.527344 -66.257812 35.371094 -65.761719 35.371094 -62.273438 C 35.371094 -61.609375 35.371094 -61.109375 35.539062 -60.445312 C 36.203125 -56.460938 28.5625 -47.824219 28.5625 -41.351562 C 28.5625 -40.519531 28.894531 -39.523438 29.890625 -39.523438 C 36.367188 -39.523438 42.347656 -44.171875 49.15625 -44.171875 C 51.148438 -45.667969 52.308594 -47.824219 52.972656 -50.152344 C 55.464844 -59.617188 56.460938 -76.222656 56.460938 -86.019531 Z M 84.195312 -128.035156 C 84.195312 -123.21875 83.695312 -118.402344 83.199219 -113.585938 C 82.035156 -112.257812 80.871094 -110.597656 80.871094 -108.769531 C 80.871094 -107.941406 81.039062 -107.277344 81.703125 -106.777344 C 80.375 -91.667969 78.546875 -76.554688 75.890625 -61.609375 C 74.0625 -60.113281 72.734375 -58.621094 72.402344 -56.128906 L 75.058594 -53.140625 C 74.394531 -43.675781 71.574219 -34.042969 68.585938 -25.074219 L 71.90625 -24.910156 C 71.074219 -18.597656 69.914062 -12.289062 68.585938 -6.144531 C 61.277344 -3.320312 53.636719 -0.5 45.832031 0.5 C 45.667969 -0.5 45.667969 -1.496094 45.667969 -2.492188 C 45.667969 -10.460938 48.65625 -18.101562 48.492188 -26.070312 C 42.84375 -22.75 26.570312 -19.429688 19.761719 -18.597656 C 13.617188 -11.457031 11.292969 -0.5 6.476562 4.980469 C 6.144531 5.3125 3.820312 7.140625 3.488281 7.140625 C 1.992188 7.140625 3.652344 1.828125 0 1.828125 C -2.492188 1.828125 -5.3125 4.980469 -6.640625 6.808594 C -8.800781 6.976562 -10.960938 7.308594 -13.117188 7.308594 C -9.964844 1.496094 5.644531 -25.738281 5.644531 -30.390625 C 5.644531 -31.21875 4.980469 -31.882812 4.484375 -32.382812 C 9.964844 -41.515625 14.28125 -51.3125 18.929688 -60.945312 C 22.75 -68.917969 26.570312 -77.054688 30.222656 -85.023438 C 31.882812 -88.675781 33.210938 -92.828125 35.207031 -96.316406 C 37.03125 -99.472656 43.011719 -101.960938 43.011719 -106.28125 C 43.011719 -108.4375 41.183594 -108.769531 41.015625 -110.101562 C 43.675781 -113.917969 45.335938 -118.238281 47.824219 -122.054688 C 59.617188 -126.707031 71.90625 -128.53125 84.195312 -130.691406 Z M 93.328125 -121.390625 C 93.328125 -122.386719 93.328125 -123.21875 93.160156 -124.214844 L 89.007812 -123.550781 C 89.34375 -127.703125 89.675781 -132.019531 88.84375 -136.171875 C 74.230469 -133.515625 59.449219 -131.523438 45.5 -125.875 C 41.847656 -120.894531 39.6875 -114.914062 36.035156 -109.933594 C 36.035156 -109.269531 35.871094 -108.769531 35.871094 -108.105469 C 35.871094 -106.613281 36.535156 -105.617188 37.695312 -104.621094 L 36.867188 -102.960938 C 35.039062 -101.628906 32.050781 -99.140625 30.886719 -97.148438 C 28.894531 -93.492188 27.398438 -89.175781 25.738281 -85.355469 C 20.425781 -73.730469 15.113281 -62.441406 9.464844 -50.980469 C 6.308594 -44.503906 2.988281 -37.199219 -1.164062 -31.21875 L 0 -28.398438 C -4.980469 -14.28125 -13.117188 -1.328125 -20.257812 11.789062 C -18.265625 12.121094 -16.441406 12.121094 -14.449219 12.121094 C -11.292969 12.121094 -8.304688 11.957031 -5.3125 11.625 L -8.304688 17.105469 C -7.472656 17.269531 -6.640625 17.269531 -5.8125 17.269531 C -3.488281 17.269531 -0.996094 16.9375 1.328125 16.605469 C 2.160156 15.277344 4.484375 11.625 6.308594 11.625 C 8.800781 11.625 7.472656 16.273438 9.300781 16.273438 C 10.792969 16.273438 13.285156 14.945312 14.613281 14.117188 C 20.09375 7.308594 21.589844 -1.992188 27.398438 -8.800781 C 32.214844 -9.464844 37.199219 -10.460938 42.015625 -11.625 C 41.351562 -7.804688 40.683594 -4.152344 40.683594 -0.332031 C 40.683594 1.660156 40.851562 3.652344 41.351562 5.644531 C 44.671875 5.3125 48.160156 4.816406 51.480469 3.984375 C 51.3125 6.144531 51.148438 8.46875 51.644531 10.460938 C 60.445312 9.632812 69.25 6.144531 77.386719 2.988281 C 78.878906 -3.984375 80.207031 -11.125 81.203125 -18.265625 L 77.882812 -18.433594 C 80.707031 -27.234375 83.695312 -36.699219 84.027344 -46 L 81.535156 -48.988281 C 82.035156 -51.644531 84.027344 -51.644531 84.859375 -53.472656 C 87.183594 -58.453125 90.171875 -92 90.835938 -99.804688 C 90.339844 -100.136719 89.839844 -100.632812 89.839844 -101.296875 C 89.839844 -102.792969 91.003906 -104.121094 92 -105.117188 C 92.828125 -110.433594 93.328125 -116.078125 93.328125 -121.390625 Z M 93.328125 -121.390625 "/></g></g></g><g fill="#f4aaee" fill-opacity="0.502"><g transform="translate(150.65343, 238.649053)"><g><path d="M 61.609375 -91.667969 C 60.777344 -84.527344 57.125 -74.726562 52.640625 -69.25 C 53.96875 -74.5625 56.792969 -89.175781 61.609375 -91.667969 Z M 66.921875 -96.484375 C 66.921875 -100.300781 65.761719 -103.125 61.609375 -103.125 C 58.121094 -103.125 53.636719 -101.628906 51.3125 -98.972656 C 48.65625 -95.816406 40.1875 -67.917969 40.1875 -63.269531 C 40.1875 -61.277344 41.183594 -60.113281 43.34375 -60.113281 C 56.628906 -60.113281 66.921875 -85.191406 66.921875 -96.484375 Z M 98.308594 -110.101562 C 98.308594 -100.964844 95.152344 -89.175781 91.003906 -81.039062 C 87.347656 -79.710938 84.527344 -77.882812 84.527344 -73.730469 C 84.527344 -72.570312 84.691406 -71.242188 84.195312 -70.078125 C 81.203125 -62.441406 66.257812 -54.46875 66.257812 -46.828125 C 66.257812 -39.855469 71.90625 -24.078125 74.230469 -16.9375 C 74.726562 -15.445312 76.722656 -8.96875 76.722656 -7.640625 C 76.722656 -5.8125 67.089844 -2.824219 65.261719 -2.824219 C 63.933594 -3.652344 62.441406 -4.316406 60.945312 -4.316406 C 57.457031 -4.316406 51.8125 -0.5 48.988281 -0.5 C 48.160156 -0.5 46.496094 -8.636719 46.496094 -9.964844 C 46.496094 -11.957031 50.152344 -14.613281 50.152344 -16.9375 C 50.152344 -19.097656 46.164062 -19.59375 44.503906 -19.761719 C 41.847656 -23.582031 43.675781 -37.199219 38.527344 -37.199219 C 29.226562 -37.199219 28.066406 -1.496094 22.585938 4.816406 C 20.757812 6.976562 16.273438 6.144531 13.785156 6.640625 C 13.949219 5.480469 14.117188 2.988281 12.453125 2.988281 C 8.304688 2.988281 3.820312 6.144531 -0.5 6.144531 C -1.828125 6.144531 -1.992188 5.976562 -1.992188 4.816406 C -1.992188 4.484375 -0.5 1.164062 -0.332031 0.5 C 0.664062 -2.492188 1.496094 -10.792969 3.15625 -12.785156 C 6.976562 -17.4375 14.449219 -44.171875 14.449219 -50.316406 C 14.449219 -51.8125 13.285156 -52.308594 12.289062 -52.972656 C 14.449219 -63.105469 17.769531 -72.902344 20.425781 -83.03125 C 22.917969 -84.691406 25.738281 -87.015625 25.738281 -90.171875 C 25.738281 -92 24.742188 -93.660156 23.914062 -95.320312 C 25.574219 -100.46875 27.398438 -105.949219 28.5625 -111.261719 C 28.730469 -112.257812 29.226562 -115.746094 29.890625 -116.242188 C 31.71875 -117.738281 67.089844 -126.042969 71.242188 -126.207031 C 71.40625 -124.546875 71.738281 -123.71875 73.566406 -123.71875 C 78.050781 -123.71875 82.699219 -126.042969 87.347656 -126.042969 C 96.316406 -126.042969 98.308594 -117.40625 98.308594 -110.101562 Z M 107.277344 -104.785156 C 107.277344 -108.273438 105.78125 -113.917969 103.125 -116.410156 C 102.960938 -124.546875 97.3125 -131.023438 89.007812 -131.023438 C 84.859375 -131.023438 80.539062 -129.695312 76.390625 -128.863281 C 76.058594 -130.195312 74.894531 -131.355469 73.398438 -131.355469 C 67.421875 -131.355469 36.367188 -123.550781 30.222656 -121.058594 C 25.074219 -119.066406 24.578125 -114.75 23.582031 -110.101562 C 22.253906 -104.289062 20.257812 -98.640625 18.433594 -92.996094 C 18.929688 -92.164062 20.59375 -89.839844 20.59375 -89.007812 C 20.59375 -87.515625 17.269531 -85.855469 16.273438 -85.191406 C 14.449219 -77.71875 7.140625 -56.628906 7.140625 -50.648438 C 7.140625 -49.320312 7.972656 -48.492188 9.132812 -47.992188 C 8.136719 -43.175781 2.492188 -17.933594 0.664062 -15.777344 C -4.152344 -9.964844 -3.15625 -5.3125 -5.3125 1.164062 C -5.976562 3.320312 -7.308594 5.480469 -7.308594 7.804688 C -7.308594 10.296875 -5.480469 11.292969 -3.15625 11.292969 C -0.332031 11.292969 2.324219 10.460938 4.980469 9.632812 C 4.316406 11.125 3.488281 12.953125 3.488281 14.613281 C 3.488281 15.941406 4.484375 16.109375 5.644531 16.109375 C 10.128906 16.109375 14.449219 12.953125 18.765625 12.953125 L 19.097656 12.953125 C 19.429688 13.117188 19.59375 13.617188 19.59375 13.949219 C 19.59375 14.449219 18.929688 16.773438 19.925781 16.773438 C 23.082031 16.773438 28.894531 16.109375 31.054688 13.449219 C 35.039062 8.46875 37.53125 -9.464844 39.355469 -16.441406 C 40.019531 -15.277344 42.347656 -14.28125 43.675781 -14.28125 C 43.839844 -14.28125 44.007812 -14.28125 44.171875 -14.28125 C 42.84375 -12.121094 41.515625 -9.796875 41.515625 -7.308594 C 41.515625 -4.152344 42.511719 4.152344 46.496094 4.152344 C 48.65625 4.152344 50.816406 3.320312 52.808594 2.65625 C 53.140625 4.152344 53.636719 9.300781 55.796875 9.300781 C 58.121094 9.300781 64.265625 5.480469 68.25 5.480469 C 70.410156 5.480469 70.410156 7.140625 72.070312 7.140625 C 74.726562 7.140625 85.6875 2.492188 85.6875 -0.332031 C 85.6875 -4.484375 82.035156 -12.621094 80.539062 -16.773438 C 78.714844 -22.253906 78.050781 -28.066406 76.390625 -33.542969 C 75.890625 -35.207031 74.894531 -36.699219 74.894531 -38.527344 C 74.894531 -45.832031 93.492188 -56.792969 93.492188 -63.601562 C 93.492188 -64.433594 93.160156 -65.429688 93.160156 -66.257812 C 93.160156 -70.246094 98.808594 -71.074219 99.472656 -71.90625 C 104.121094 -78.214844 107.277344 -96.816406 107.277344 -104.785156 Z M 107.277344 -104.785156 "/></g></g></g><g fill="#f4aaee" fill-opacity="0.502"><g transform="translate(242.148808, 238.649053)"><g><path d="M 74.894531 -129.859375 C 68.417969 -114.582031 61.609375 -99.636719 54.632812 -84.691406 C 51.976562 -78.878906 49.488281 -72.070312 46.164062 -66.589844 C 44.339844 -63.769531 40.519531 -62.441406 38.691406 -59.285156 C 28.398438 -41.183594 22.085938 -18.433594 13.117188 0.832031 C 10.628906 1.496094 7.972656 1.992188 5.480469 2.65625 C 0.332031 3.820312 0.332031 9.796875 -4.484375 9.796875 C -5.976562 9.796875 -7.804688 9.300781 -9.132812 8.636719 C 0.167969 -9.796875 8.636719 -28.5625 17.4375 -47.160156 C 20.925781 -54.46875 23.746094 -62.273438 27.734375 -69.25 C 29.726562 -72.902344 36.035156 -75.394531 36.035156 -79.710938 C 36.035156 -81.371094 35.039062 -82.699219 35.039062 -84.195312 C 35.039062 -85.355469 49.15625 -116.410156 50.484375 -119.566406 C 57.625 -122.222656 62.273438 -120.394531 66.257812 -128.699219 C 69.082031 -129.195312 71.90625 -129.695312 74.894531 -129.859375 Z M 83.695312 -123.386719 C 81.203125 -123.386719 78.714844 -122.886719 76.390625 -122.554688 L 81.703125 -134.84375 C 80.707031 -134.84375 79.542969 -134.84375 78.546875 -134.84375 C 68.917969 -134.84375 66.257812 -134.511719 60.28125 -126.871094 C 56.460938 -126.042969 51.148438 -124.714844 47.824219 -122.71875 C 45.5 -119.566406 30.058594 -84.859375 30.058594 -82.199219 C 30.058594 -80.539062 31.054688 -79.710938 30.886719 -77.882812 C 28.066406 -75.226562 25.074219 -72.902344 23.25 -69.414062 C 19.761719 -62.9375 16.9375 -56.128906 13.785156 -49.488281 C 4.152344 -29.0625 -5.148438 -8.304688 -15.445312 11.789062 C -12.785156 13.449219 -9.132812 14.78125 -5.976562 14.78125 C -4.484375 14.78125 -2.988281 14.449219 -1.828125 13.617188 L -3.984375 17.933594 C -1.992188 19.097656 0.664062 19.59375 2.824219 19.59375 C 7.308594 19.59375 8.96875 13.449219 12.289062 12.453125 C 15.277344 11.625 18.433594 11.125 21.421875 10.296875 C 28.066406 -3.820312 33.378906 -18.433594 39.355469 -32.878906 C 41.847656 -38.859375 44.171875 -45.5 47.492188 -50.980469 C 49.320312 -53.96875 53.140625 -55.300781 54.96875 -58.289062 C 58.785156 -64.597656 61.441406 -72.070312 64.597656 -78.878906 C 71.40625 -93.660156 78.050781 -108.4375 84.527344 -123.386719 Z M 83.695312 -123.386719 "/></g></g></g><g fill="#f4aaee" fill-opacity="0.502"><g transform="translate(298.440883, 238.649053)"><g><path d="M 62.773438 -64.765625 C 58.785156 -58.953125 39.855469 -35.371094 39.855469 -30.554688 C 39.855469 -28.5625 40.519531 -30.554688 40.519531 -28.5625 C 40.519531 -25.738281 21.589844 -1.660156 18.597656 2.988281 C 14.613281 4.648438 10.792969 5.644531 6.640625 6.640625 C 3.652344 7.472656 0.332031 11.292969 -0.832031 11.625 C -1.164062 11.625 -1.496094 11.789062 -1.828125 11.789062 C -3.652344 11.789062 -5.976562 11.292969 -7.472656 10.296875 C -0.167969 0.167969 8.800781 -9.632812 14.945312 -20.425781 C 16.273438 -22.917969 15.941406 -25.40625 17.105469 -27.734375 C 22.085938 -37.863281 29.890625 -47.328125 36.035156 -56.960938 C 34.875 -63.601562 32.214844 -70.910156 32.214844 -77.71875 C 32.214844 -79.875 35.871094 -82.367188 35.871094 -86.1875 C 35.871094 -88.34375 30.722656 -88.84375 30.222656 -89.839844 C 29.394531 -91.5 26.402344 -112.425781 25.90625 -115.910156 C 28.894531 -118.570312 32.382812 -120.894531 36.035156 -122.886719 C 37.03125 -121.890625 38.359375 -120.0625 40.019531 -120.0625 C 41.183594 -120.0625 50.980469 -123.882812 53.804688 -124.546875 C 55.300781 -116.742188 59.617188 -109.269531 59.617188 -101.296875 C 59.617188 -99.140625 54.96875 -94.65625 54.96875 -90.671875 C 54.96875 -83.199219 61.109375 -72.570312 62.773438 -64.765625 Z M 71.738281 -56.792969 C 70.246094 -65.429688 63.933594 -75.226562 63.933594 -83.363281 C 63.933594 -86.851562 68.585938 -90.503906 68.585938 -93.992188 C 68.585938 -101.960938 63.769531 -110.101562 62.773438 -118.238281 L 61.609375 -118.070312 C 60.445312 -122.054688 59.117188 -126.042969 58.621094 -130.195312 C 52.808594 -129.03125 47.328125 -127.535156 42.015625 -125.046875 C 40.019531 -125.210938 41.515625 -127.703125 38.195312 -127.703125 C 33.046875 -127.703125 24.078125 -119.730469 20.425781 -116.078125 C 21.589844 -107.941406 22.417969 -94.324219 25.074219 -87.015625 C 26.402344 -83.199219 28.5625 -85.023438 30.722656 -83.695312 C 29.558594 -81.535156 27.066406 -78.214844 27.066406 -75.890625 C 27.066406 -69.414062 29.394531 -62.273438 30.554688 -55.964844 C 24.742188 -46.996094 18.433594 -38.027344 13.117188 -28.730469 C 11.457031 -25.738281 11.789062 -24.910156 11.125 -21.921875 C 10.460938 -18.929688 -10.296875 7.140625 -13.949219 12.453125 C -11.625 14.945312 -7.972656 16.773438 -4.484375 16.773438 C -2.824219 16.773438 -1.164062 16.273438 0.332031 15.445312 L -2.324219 19.261719 C -0.664062 20.925781 2.160156 21.589844 4.484375 21.589844 C 8.46875 21.589844 10.296875 17.269531 13.617188 16.441406 C 18.265625 15.277344 22.417969 14.28125 26.734375 12.289062 C 29.890625 7.308594 49.488281 -17.4375 49.488281 -20.757812 C 49.488281 -21.753906 48.824219 -22.585938 48.824219 -23.582031 C 48.824219 -26.734375 68.585938 -51.8125 71.738281 -56.792969 Z M 71.738281 -56.792969 "/></g></g></g><g fill="#ff4593" fill-opacity="1"><g transform="translate(0.0000045, 236.447313)"><g><path d="M 79.046875 -129.03125 C 73.398438 -119.566406 68.417969 -108.769531 61.609375 -100.300781 C 59.449219 -97.644531 55.300781 -98.308594 52.640625 -94.15625 C 50.648438 -91.167969 51.8125 -85.523438 50.648438 -83.199219 C 46.664062 -75.394531 41.015625 -68.085938 36.203125 -60.777344 C 37.03125 -55.632812 38.359375 -49.984375 38.359375 -44.835938 C 38.359375 -41.847656 36.203125 -38.859375 36.203125 -35.871094 C 36.203125 -33.378906 38.359375 -33.542969 40.351562 -33.378906 C 42.84375 -23.082031 44.671875 -12.453125 46.332031 -1.992188 C 44.503906 -0.167969 40.519531 3.820312 37.695312 3.820312 C 36.367188 3.820312 35.371094 3.320312 34.042969 3.320312 C 29.890625 3.320312 26.070312 6.308594 22.417969 7.804688 C 20.925781 4.980469 18.929688 -2.824219 18.929688 -5.976562 C 18.929688 -8.636719 20.757812 -11.292969 20.757812 -13.949219 C 20.757812 -17.601562 16.773438 -17.269531 15.777344 -19.761719 C 12.453125 -28.5625 11.125 -42.179688 9.132812 -51.8125 C 17.105469 -63.269531 26.570312 -74.5625 33.210938 -86.851562 C 34.707031 -89.507812 33.875 -92.496094 35.039062 -94.988281 C 39.023438 -103.789062 46.496094 -114.417969 51.976562 -122.386719 C 55.796875 -123.386719 59.449219 -123.21875 63.269531 -123.882812 C 67.253906 -124.546875 68.917969 -129.859375 72.402344 -129.859375 C 74.5625 -129.859375 76.886719 -129.527344 79.046875 -129.03125 Z M 88.675781 -122.054688 C 86.351562 -123.21875 83.03125 -123.21875 80.375 -123.21875 L 85.855469 -132.351562 C 82.535156 -134.011719 78.878906 -134.84375 75.226562 -134.84375 C 70.578125 -134.84375 67.753906 -131.6875 64.265625 -128.863281 C 60.113281 -128.53125 53.96875 -127.867188 50.152344 -126.207031 C 46.164062 -121.890625 33.710938 -101.628906 30.886719 -95.816406 C 29.394531 -92.996094 30.058594 -89.839844 29.0625 -87.679688 C 22.585938 -74.230469 11.457031 -63.269531 3.652344 -50.648438 C 5.976562 -39.6875 7.140625 -27.566406 10.628906 -16.9375 C 11.625 -13.617188 15.609375 -12.953125 15.609375 -10.960938 C 15.609375 -8.96875 13.949219 -6.808594 13.949219 -4.316406 C 13.949219 -0.664062 16.273438 10.628906 19.097656 12.953125 C 21.589844 12.621094 23.914062 11.457031 26.238281 10.460938 C 26.570312 12.121094 27.398438 16.605469 28.5625 17.769531 C 32.878906 17.269531 36.367188 13.117188 40.683594 13.117188 C 41.847656 13.117188 42.679688 13.785156 43.839844 13.785156 C 47.160156 13.785156 53.140625 8.46875 55.464844 6.144531 C 54.632812 0.664062 51.644531 -22.75 49.488281 -26.238281 C 49.15625 -26.902344 48.324219 -26.902344 47.660156 -26.902344 L 46.332031 -33.046875 C 46.828125 -35.039062 47.160156 -37.03125 47.160156 -39.191406 C 47.160156 -43.839844 46.164062 -48.492188 45.335938 -52.972656 C 49.984375 -60.113281 55.300781 -67.089844 59.285156 -74.5625 C 60.945312 -77.882812 59.617188 -82.867188 61.277344 -85.523438 C 63.4375 -88.84375 67.585938 -88.34375 70.246094 -91.832031 C 77.21875 -101.296875 82.699219 -111.925781 88.675781 -122.054688 Z M 88.675781 -122.054688 "/></g></g></g><g fill="#ff4593" fill-opacity="1"><g transform="translate(62.436058, 236.447313)"><g><path d="M 50.316406 -63.105469 C 49.984375 -58.289062 49.15625 -53.636719 47.992188 -48.988281 C 46.332031 -48.824219 44.671875 -48.324219 43.175781 -47.824219 C 43.839844 -49.15625 44.671875 -50.648438 44.671875 -52.144531 C 44.671875 -52.972656 44.339844 -53.636719 44.339844 -54.46875 C 44.339844 -57.125 47.660156 -58.121094 48.824219 -60.28125 Z M 56.460938 -86.019531 C 56.460938 -87.347656 56.960938 -92.332031 54.632812 -92.332031 C 50.316406 -92.332031 42.679688 -72.570312 40.019531 -68.585938 C 38.527344 -66.257812 35.371094 -65.761719 35.371094 -62.273438 C 35.371094 -61.609375 35.371094 -61.109375 35.539062 -60.445312 C 36.203125 -56.460938 28.5625 -47.824219 28.5625 -41.351562 C 28.5625 -40.519531 28.894531 -39.523438 29.890625 -39.523438 C 36.367188 -39.523438 42.347656 -44.171875 49.15625 -44.171875 C 51.148438 -45.667969 52.308594 -47.824219 52.972656 -50.152344 C 55.464844 -59.617188 56.460938 -76.222656 56.460938 -86.019531 Z M 84.195312 -128.035156 C 84.195312 -123.21875 83.695312 -118.402344 83.199219 -113.585938 C 82.035156 -112.257812 80.871094 -110.597656 80.871094 -108.769531 C 80.871094 -107.941406 81.039062 -107.277344 81.703125 -106.777344 C 80.375 -91.667969 78.546875 -76.554688 75.890625 -61.609375 C 74.0625 -60.113281 72.734375 -58.621094 72.402344 -56.128906 L 75.058594 -53.140625 C 74.394531 -43.675781 71.574219 -34.042969 68.585938 -25.074219 L 71.90625 -24.910156 C 71.074219 -18.597656 69.914062 -12.289062 68.585938 -6.144531 C 61.277344 -3.320312 53.636719 -0.5 45.832031 0.5 C 45.667969 -0.5 45.667969 -1.496094 45.667969 -2.492188 C 45.667969 -10.460938 48.65625 -18.101562 48.492188 -26.070312 C 42.84375 -22.75 26.570312 -19.429688 19.761719 -18.597656 C 13.617188 -11.457031 11.292969 -0.5 6.476562 4.980469 C 6.144531 5.3125 3.820312 7.140625 3.488281 7.140625 C 1.992188 7.140625 3.652344 1.828125 0 1.828125 C -2.492188 1.828125 -5.3125 4.980469 -6.640625 6.808594 C -8.800781 6.976562 -10.960938 7.308594 -13.117188 7.308594 C -9.964844 1.496094 5.644531 -25.738281 5.644531 -30.390625 C 5.644531 -31.21875 4.980469 -31.882812 4.484375 -32.382812 C 9.964844 -41.515625 14.28125 -51.3125 18.929688 -60.945312 C 22.75 -68.917969 26.570312 -77.054688 30.222656 -85.023438 C 31.882812 -88.675781 33.210938 -92.828125 35.207031 -96.316406 C 37.03125 -99.472656 43.011719 -101.960938 43.011719 -106.28125 C 43.011719 -108.4375 41.183594 -108.769531 41.015625 -110.101562 C 43.675781 -113.917969 45.335938 -118.238281 47.824219 -122.054688 C 59.617188 -126.707031 71.90625 -128.53125 84.195312 -130.691406 Z M 93.328125 -121.390625 C 93.328125 -122.386719 93.328125 -123.21875 93.160156 -124.214844 L 89.007812 -123.550781 C 89.34375 -127.703125 89.675781 -132.019531 88.84375 -136.171875 C 74.230469 -133.515625 59.449219 -131.523438 45.5 -125.875 C 41.847656 -120.894531 39.6875 -114.914062 36.035156 -109.933594 C 36.035156 -109.269531 35.871094 -108.769531 35.871094 -108.105469 C 35.871094 -106.613281 36.535156 -105.617188 37.695312 -104.621094 L 36.867188 -102.960938 C 35.039062 -101.628906 32.050781 -99.140625 30.886719 -97.148438 C 28.894531 -93.492188 27.398438 -89.175781 25.738281 -85.355469 C 20.425781 -73.730469 15.113281 -62.441406 9.464844 -50.980469 C 6.308594 -44.503906 2.988281 -37.199219 -1.164062 -31.21875 L 0 -28.398438 C -4.980469 -14.28125 -13.117188 -1.328125 -20.257812 11.789062 C -18.265625 12.121094 -16.441406 12.121094 -14.449219 12.121094 C -11.292969 12.121094 -8.304688 11.957031 -5.3125 11.625 L -8.304688 17.105469 C -7.472656 17.269531 -6.640625 17.269531 -5.8125 17.269531 C -3.488281 17.269531 -0.996094 16.9375 1.328125 16.605469 C 2.160156 15.277344 4.484375 11.625 6.308594 11.625 C 8.800781 11.625 7.472656 16.273438 9.300781 16.273438 C 10.792969 16.273438 13.285156 14.945312 14.613281 14.117188 C 20.09375 7.308594 21.589844 -1.992188 27.398438 -8.800781 C 32.214844 -9.464844 37.199219 -10.460938 42.015625 -11.625 C 41.351562 -7.804688 40.683594 -4.152344 40.683594 -0.332031 C 40.683594 1.660156 40.851562 3.652344 41.351562 5.644531 C 44.671875 5.3125 48.160156 4.816406 51.480469 3.984375 C 51.3125 6.144531 51.148438 8.46875 51.644531 10.460938 C 60.445312 9.632812 69.25 6.144531 77.386719 2.988281 C 78.878906 -3.984375 80.207031 -11.125 81.203125 -18.265625 L 77.882812 -18.433594 C 80.707031 -27.234375 83.695312 -36.699219 84.027344 -46 L 81.535156 -48.988281 C 82.035156 -51.644531 84.027344 -51.644531 84.859375 -53.472656 C 87.183594 -58.453125 90.171875 -92 90.835938 -99.804688 C 90.339844 -100.136719 89.839844 -100.632812 89.839844 -101.296875 C 89.839844 -102.792969 91.003906 -104.121094 92 -105.117188 C 92.828125 -110.433594 93.328125 -116.078125 93.328125 -121.390625 Z M 93.328125 -121.390625 "/></g></g></g><g fill="#ff4593" fill-opacity="1"><g transform="translate(148.451687, 236.447313)"><g><path d="M 61.609375 -91.667969 C 60.777344 -84.527344 57.125 -74.726562 52.640625 -69.25 C 53.96875 -74.5625 56.792969 -89.175781 61.609375 -91.667969 Z M 66.921875 -96.484375 C 66.921875 -100.300781 65.761719 -103.125 61.609375 -103.125 C 58.121094 -103.125 53.636719 -101.628906 51.3125 -98.972656 C 48.65625 -95.816406 40.1875 -67.917969 40.1875 -63.269531 C 40.1875 -61.277344 41.183594 -60.113281 43.34375 -60.113281 C 56.628906 -60.113281 66.921875 -85.191406 66.921875 -96.484375 Z M 98.308594 -110.101562 C 98.308594 -100.964844 95.152344 -89.175781 91.003906 -81.039062 C 87.347656 -79.710938 84.527344 -77.882812 84.527344 -73.730469 C 84.527344 -72.570312 84.691406 -71.242188 84.195312 -70.078125 C 81.203125 -62.441406 66.257812 -54.46875 66.257812 -46.828125 C 66.257812 -39.855469 71.90625 -24.078125 74.230469 -16.9375 C 74.726562 -15.445312 76.722656 -8.96875 76.722656 -7.640625 C 76.722656 -5.8125 67.089844 -2.824219 65.261719 -2.824219 C 63.933594 -3.652344 62.441406 -4.316406 60.945312 -4.316406 C 57.457031 -4.316406 51.8125 -0.5 48.988281 -0.5 C 48.160156 -0.5 46.496094 -8.636719 46.496094 -9.964844 C 46.496094 -11.957031 50.152344 -14.613281 50.152344 -16.9375 C 50.152344 -19.097656 46.164062 -19.59375 44.503906 -19.761719 C 41.847656 -23.582031 43.675781 -37.199219 38.527344 -37.199219 C 29.226562 -37.199219 28.066406 -1.496094 22.585938 4.816406 C 20.757812 6.976562 16.273438 6.144531 13.785156 6.640625 C 13.949219 5.480469 14.117188 2.988281 12.453125 2.988281 C 8.304688 2.988281 3.820312 6.144531 -0.5 6.144531 C -1.828125 6.144531 -1.992188 5.976562 -1.992188 4.816406 C -1.992188 4.484375 -0.5 1.164062 -0.332031 0.5 C 0.664062 -2.492188 1.496094 -10.792969 3.15625 -12.785156 C 6.976562 -17.4375 14.449219 -44.171875 14.449219 -50.316406 C 14.449219 -51.8125 13.285156 -52.308594 12.289062 -52.972656 C 14.449219 -63.105469 17.769531 -72.902344 20.425781 -83.03125 C 22.917969 -84.691406 25.738281 -87.015625 25.738281 -90.171875 C 25.738281 -92 24.742188 -93.660156 23.914062 -95.320312 C 25.574219 -100.46875 27.398438 -105.949219 28.5625 -111.261719 C 28.730469 -112.257812 29.226562 -115.746094 29.890625 -116.242188 C 31.71875 -117.738281 67.089844 -126.042969 71.242188 -126.207031 C 71.40625 -124.546875 71.738281 -123.71875 73.566406 -123.71875 C 78.050781 -123.71875 82.699219 -126.042969 87.347656 -126.042969 C 96.316406 -126.042969 98.308594 -117.40625 98.308594 -110.101562 Z M 107.277344 -104.785156 C 107.277344 -108.273438 105.78125 -113.917969 103.125 -116.410156 C 102.960938 -124.546875 97.3125 -131.023438 89.007812 -131.023438 C 84.859375 -131.023438 80.539062 -129.695312 76.390625 -128.863281 C 76.058594 -130.195312 74.894531 -131.355469 73.398438 -131.355469 C 67.421875 -131.355469 36.367188 -123.550781 30.222656 -121.058594 C 25.074219 -119.066406 24.578125 -114.75 23.582031 -110.101562 C 22.253906 -104.289062 20.257812 -98.640625 18.433594 -92.996094 C 18.929688 -92.164062 20.59375 -89.839844 20.59375 -89.007812 C 20.59375 -87.515625 17.269531 -85.855469 16.273438 -85.191406 C 14.449219 -77.71875 7.140625 -56.628906 7.140625 -50.648438 C 7.140625 -49.320312 7.972656 -48.492188 9.132812 -47.992188 C 8.136719 -43.175781 2.492188 -17.933594 0.664062 -15.777344 C -4.152344 -9.964844 -3.15625 -5.3125 -5.3125 1.164062 C -5.976562 3.320312 -7.308594 5.480469 -7.308594 7.804688 C -7.308594 10.296875 -5.480469 11.292969 -3.15625 11.292969 C -0.332031 11.292969 2.324219 10.460938 4.980469 9.632812 C 4.316406 11.125 3.488281 12.953125 3.488281 14.613281 C 3.488281 15.941406 4.484375 16.109375 5.644531 16.109375 C 10.128906 16.109375 14.449219 12.953125 18.765625 12.953125 L 19.097656 12.953125 C 19.429688 13.117188 19.59375 13.617188 19.59375 13.949219 C 19.59375 14.449219 18.929688 16.773438 19.925781 16.773438 C 23.082031 16.773438 28.894531 16.109375 31.054688 13.449219 C 35.039062 8.46875 37.53125 -9.464844 39.355469 -16.441406 C 40.019531 -15.277344 42.347656 -14.28125 43.675781 -14.28125 C 43.839844 -14.28125 44.007812 -14.28125 44.171875 -14.28125 C 42.84375 -12.121094 41.515625 -9.796875 41.515625 -7.308594 C 41.515625 -4.152344 42.511719 4.152344 46.496094 4.152344 C 48.65625 4.152344 50.816406 3.320312 52.808594 2.65625 C 53.140625 4.152344 53.636719 9.300781 55.796875 9.300781 C 58.121094 9.300781 64.265625 5.480469 68.25 5.480469 C 70.410156 5.480469 70.410156 7.140625 72.070312 7.140625 C 74.726562 7.140625 85.6875 2.492188 85.6875 -0.332031 C 85.6875 -4.484375 82.035156 -12.621094 80.539062 -16.773438 C 78.714844 -22.253906 78.050781 -28.066406 76.390625 -33.542969 C 75.890625 -35.207031 74.894531 -36.699219 74.894531 -38.527344 C 74.894531 -45.832031 93.492188 -56.792969 93.492188 -63.601562 C 93.492188 -64.433594 93.160156 -65.429688 93.160156 -66.257812 C 93.160156 -70.246094 98.808594 -71.074219 99.472656 -71.90625 C 104.121094 -78.214844 107.277344 -96.816406 107.277344 -104.785156 Z M 107.277344 -104.785156 "/></g></g></g><g fill="#ff4593" fill-opacity="1"><g transform="translate(239.947064, 236.447313)"><g><path d="M 74.894531 -129.859375 C 68.417969 -114.582031 61.609375 -99.636719 54.632812 -84.691406 C 51.976562 -78.878906 49.488281 -72.070312 46.164062 -66.589844 C 44.339844 -63.769531 40.519531 -62.441406 38.691406 -59.285156 C 28.398438 -41.183594 22.085938 -18.433594 13.117188 0.832031 C 10.628906 1.496094 7.972656 1.992188 5.480469 2.65625 C 0.332031 3.820312 0.332031 9.796875 -4.484375 9.796875 C -5.976562 9.796875 -7.804688 9.300781 -9.132812 8.636719 C 0.167969 -9.796875 8.636719 -28.5625 17.4375 -47.160156 C 20.925781 -54.46875 23.746094 -62.273438 27.734375 -69.25 C 29.726562 -72.902344 36.035156 -75.394531 36.035156 -79.710938 C 36.035156 -81.371094 35.039062 -82.699219 35.039062 -84.195312 C 35.039062 -85.355469 49.15625 -116.410156 50.484375 -119.566406 C 57.625 -122.222656 62.273438 -120.394531 66.257812 -128.699219 C 69.082031 -129.195312 71.90625 -129.695312 74.894531 -129.859375 Z M 83.695312 -123.386719 C 81.203125 -123.386719 78.714844 -122.886719 76.390625 -122.554688 L 81.703125 -134.84375 C 80.707031 -134.84375 79.542969 -134.84375 78.546875 -134.84375 C 68.917969 -134.84375 66.257812 -134.511719 60.28125 -126.871094 C 56.460938 -126.042969 51.148438 -124.714844 47.824219 -122.71875 C 45.5 -119.566406 30.058594 -84.859375 30.058594 -82.199219 C 30.058594 -80.539062 31.054688 -79.710938 30.886719 -77.882812 C 28.066406 -75.226562 25.074219 -72.902344 23.25 -69.414062 C 19.761719 -62.9375 16.9375 -56.128906 13.785156 -49.488281 C 4.152344 -29.0625 -5.148438 -8.304688 -15.445312 11.789062 C -12.785156 13.449219 -9.132812 14.78125 -5.976562 14.78125 C -4.484375 14.78125 -2.988281 14.449219 -1.828125 13.617188 L -3.984375 17.933594 C -1.992188 19.097656 0.664062 19.59375 2.824219 19.59375 C 7.308594 19.59375 8.96875 13.449219 12.289062 12.453125 C 15.277344 11.625 18.433594 11.125 21.421875 10.296875 C 28.066406 -3.820312 33.378906 -18.433594 39.355469 -32.878906 C 41.847656 -38.859375 44.171875 -45.5 47.492188 -50.980469 C 49.320312 -53.96875 53.140625 -55.300781 54.96875 -58.289062 C 58.785156 -64.597656 61.441406 -72.070312 64.597656 -78.878906 C 71.40625 -93.660156 78.050781 -108.4375 84.527344 -123.386719 Z M 83.695312 -123.386719 "/></g></g></g><g fill="#ff4593" fill-opacity="1"><g transform="translate(296.23914, 236.447313)"><g><path d="M 62.773438 -64.765625 C 58.785156 -58.953125 39.855469 -35.371094 39.855469 -30.554688 C 39.855469 -28.5625 40.519531 -30.554688 40.519531 -28.5625 C 40.519531 -25.738281 21.589844 -1.660156 18.597656 2.988281 C 14.613281 4.648438 10.792969 5.644531 6.640625 6.640625 C 3.652344 7.472656 0.332031 11.292969 -0.832031 11.625 C -1.164062 11.625 -1.496094 11.789062 -1.828125 11.789062 C -3.652344 11.789062 -5.976562 11.292969 -7.472656 10.296875 C -0.167969 0.167969 8.800781 -9.632812 14.945312 -20.425781 C 16.273438 -22.917969 15.941406 -25.40625 17.105469 -27.734375 C 22.085938 -37.863281 29.890625 -47.328125 36.035156 -56.960938 C 34.875 -63.601562 32.214844 -70.910156 32.214844 -77.71875 C 32.214844 -79.875 35.871094 -82.367188 35.871094 -86.1875 C 35.871094 -88.34375 30.722656 -88.84375 30.222656 -89.839844 C 29.394531 -91.5 26.402344 -112.425781 25.90625 -115.910156 C 28.894531 -118.570312 32.382812 -120.894531 36.035156 -122.886719 C 37.03125 -121.890625 38.359375 -120.0625 40.019531 -120.0625 C 41.183594 -120.0625 50.980469 -123.882812 53.804688 -124.546875 C 55.300781 -116.742188 59.617188 -109.269531 59.617188 -101.296875 C 59.617188 -99.140625 54.96875 -94.65625 54.96875 -90.671875 C 54.96875 -83.199219 61.109375 -72.570312 62.773438 -64.765625 Z M 71.738281 -56.792969 C 70.246094 -65.429688 63.933594 -75.226562 63.933594 -83.363281 C 63.933594 -86.851562 68.585938 -90.503906 68.585938 -93.992188 C 68.585938 -101.960938 63.769531 -110.101562 62.773438 -118.238281 L 61.609375 -118.070312 C 60.445312 -122.054688 59.117188 -126.042969 58.621094 -130.195312 C 52.808594 -129.03125 47.328125 -127.535156 42.015625 -125.046875 C 40.019531 -125.210938 41.515625 -127.703125 38.195312 -127.703125 C 33.046875 -127.703125 24.078125 -119.730469 20.425781 -116.078125 C 21.589844 -107.941406 22.417969 -94.324219 25.074219 -87.015625 C 26.402344 -83.199219 28.5625 -85.023438 30.722656 -83.695312 C 29.558594 -81.535156 27.066406 -78.214844 27.066406 -75.890625 C 27.066406 -69.414062 29.394531 -62.273438 30.554688 -55.964844 C 24.742188 -46.996094 18.433594 -38.027344 13.117188 -28.730469 C 11.457031 -25.738281 11.789062 -24.910156 11.125 -21.921875 C 10.460938 -18.929688 -10.296875 7.140625 -13.949219 12.453125 C -11.625 14.945312 -7.972656 16.773438 -4.484375 16.773438 C -2.824219 16.773438 -1.164062 16.273438 0.332031 15.445312 L -2.324219 19.261719 C -0.664062 20.925781 2.160156 21.589844 4.484375 21.589844 C 8.46875 21.589844 10.296875 17.269531 13.617188 16.441406 C 18.265625 15.277344 22.417969 14.28125 26.734375 12.289062 C 29.890625 7.308594 49.488281 -17.4375 49.488281 -20.757812 C 49.488281 -21.753906 48.824219 -22.585938 48.824219 -23.582031 C 48.824219 -26.734375 68.585938 -51.8125 71.738281 -56.792969 Z M 71.738281 -56.792969 "/></g></g></g></svg>